<?xml version="1.0" standalone="no"?>
<!DOCTYPE svg PUBLIC "-//W3C//DTD SVG 20010904//EN"
 "http://www.w3.org/TR/2001/REC-SVG-20010904/DTD/svg10.dtd">
<svg version="1.0" xmlns="http://www.w3.org/2000/svg"
 width="424.000000pt" height="600.000000pt" viewBox="0 0 424.000000 600.000000"
 preserveAspectRatio="xMidYMid meet">
<g transform="translate(0.000000,600.000000) scale(0.100000,-0.100000)"
fill="#000000" stroke="none">
<path d="M740 5485 l0 -45 -44 0 -44 0 -7 -95 -7 -95 -44 0 -44 0 0 -145 0
-145 -45 0 -45 0 0 -465 0 -465 -50 0 -50 0 0 -45 0 -45 -40 0 -40 0 0 -50 0
-50 -45 0 -45 0 0 -89 0 -90 -47 -3 -48 -3 -3 -137 -3 -138 -44 0 -45 0 0
-285 0 -285 45 0 45 0 0 -95 0 -95 50 0 50 0 0 -185 0 -185 -50 0 -50 0 0
-238 0 -237 -45 3 -45 4 0 -35 c0 -35 1 -36 42 -39 l43 -3 3 -242 2 -243 50 0
50 0 0 -90 0 -90 45 0 45 0 0 -55 0 -55 -45 0 -44 0 -3 -92 -3 -93 -41 -3 -41
-3 -7 -61 c-3 -34 -6 -200 -6 -369 l0 -309 185 0 185 0 0 95 0 95 -45 0 -46 0
3 137 3 137 40 0 40 1 3 142 3 143 44 0 45 0 0 235 0 235 -45 0 -45 0 0 95 0
95 -50 0 -50 0 0 324 0 325 48 3 47 3 3 138 3 137 44 0 45 0 0 140 0 140 -45
0 -45 0 0 50 0 50 -44 0 -43 0 -6 68 c-4 37 -7 205 -7 375 l0 307 50 0 50 0 0
95 0 95 45 0 45 0 0 45 0 45 45 0 45 0 0 44 0 45 48 3 47 3 3 48 3 47 140 0
139 0 0 45 0 45 90 0 90 0 0 -45 0 -45 45 0 45 0 0 45 0 45 44 0 45 0 3 48 3
47 41 3 42 3 7 90 7 89 44 0 44 0 0 45 0 44 93 3 92 3 3 48 3 47 359 0 359 0
3 -47 3 -48 48 -3 47 -3 0 -45 0 -44 90 0 89 0 3 -92 3 -93 48 -3 47 -3 0 -45
0 -44 45 0 45 0 0 -45 0 -45 45 0 45 0 0 45 0 45 90 0 90 0 0 -45 0 -45 139 0
140 0 3 -47 3 -48 48 -3 47 -3 0 -45 0 -44 45 0 45 0 0 -45 0 -45 45 0 45 0 0
-95 0 -95 50 0 50 0 0 -330 0 -330 -44 0 -44 0 -7 -95 -7 -95 -44 0 -44 0 0
-140 0 -140 45 0 44 0 3 -138 3 -137 48 -3 47 -3 0 -325 0 -324 -50 0 -50 0 0
-95 0 -95 -45 0 -45 0 0 -235 0 -235 45 0 44 0 3 -142 3 -143 40 -1 40 0 3
-137 3 -137 -46 0 -45 0 0 -95 0 -95 185 0 185 0 0 309 c0 169 -3 335 -6 369
l-7 61 -41 3 -41 3 -3 93 -3 92 -44 0 -45 0 0 55 0 55 45 0 45 0 0 90 0 90 50
0 50 0 2 243 3 242 43 3 c41 3 42 4 42 39 l0 35 -45 -4 -45 -3 0 237 0 238
-50 0 -50 0 0 185 0 185 50 0 50 0 0 140 0 140 45 0 45 0 0 194 0 195 -42 3
-43 3 -3 170 c-1 94 -5 176 -7 183 -3 7 -22 12 -50 12 l-45 0 0 90 0 90 -45 0
-45 0 0 50 0 50 -40 0 -40 0 0 45 0 45 -50 0 -50 0 0 465 0 465 -45 0 -45 0 0
145 0 145 -44 0 -44 0 -7 95 -7 95 -44 0 -44 0 0 45 0 45 -230 0 -230 0 0 -45
0 -45 -45 0 -45 0 0 -50 c0 -28 -5 -50 -10 -50 -7 0 -7 -6 -1 -18 5 -10 8 -27
7 -38 -3 -19 -7 -21 -58 -23 -27 -1 -28 -3 -28 -51 l0 -50 -50 0 -50 0 0 -195
0 -195 -45 0 -45 0 0 -40 0 -40 -45 0 -45 0 0 45 0 45 -90 0 -90 0 0 45 0 45
-280 0 -280 0 0 -43 0 -44 -137 -6 c-75 -4 -156 -7 -180 -7 l-43 0 0 195 0
195 -50 0 -50 0 0 50 c0 48 -1 50 -27 51 -52 2 -56 4 -59 23 -1 11 2 28 7 38
6 12 6 18 -1 18 -5 0 -10 22 -10 50 l0 50 -45 0 -45 0 0 45 0 45 -230 0 -230
0 0 -45z m280 -280 l0 -45 40 0 40 0 0 -145 0 -145 50 0 50 0 0 -280 0 -280
-185 0 -185 0 0 45 0 45 -45 0 -45 0 0 140 0 140 45 0 45 0 0 195 0 195 45 0
45 0 0 90 0 90 50 0 50 0 0 -45z m2300 -45 l0 -90 45 0 45 0 0 -195 0 -195 45
0 45 0 0 -140 0 -140 -45 0 -45 0 0 -45 0 -45 -185 0 -185 0 0 280 0 280 50 0
50 0 0 145 0 145 40 0 40 0 0 45 0 45 50 0 50 0 0 -90z"/>
<path d="M1350 5320 c5 -9 4 -23 -1 -32 -7 -12 -5 -16 7 -14 11 2 18 14 20 34
3 25 0 30 -15 29 -14 -1 -17 -5 -11 -17z m17 -7 c-4 -3 -7 0 -7 7 0 7 3 10 7
7 3 -4 3 -10 0 -14z"/>
<path d="M2864 5308 c2 -20 9 -32 19 -34 13 -2 15 2 8 15 -5 9 -6 23 -1 32 6
11 4 15 -11 16 -15 1 -18 -4 -15 -29z m13 5 c-4 -3 -7 0 -7 7 0 7 3 10 7 7 3
-4 3 -10 0 -14z"/>
<path d="M1307 5313 c-13 -12 -7 -25 6 -14 8 6 17 8 20 4 4 -3 7 -1 7 5 0 13
-22 16 -33 5z"/>
<path d="M2900 5309 c0 -7 3 -9 7 -6 3 4 13 1 21 -6 13 -10 14 -9 10 3 -6 19
-38 26 -38 9z"/>
<path d="M1310 5280 c-9 -6 -10 -10 -3 -10 6 0 15 5 18 10 8 12 4 12 -15 0z"/>
<path d="M2917 5279 c7 -7 15 -10 18 -7 3 3 -2 9 -12 12 -14 6 -15 5 -6 -5z"/>
<path d="M4178 3313 c12 -2 32 -2 45 0 12 2 2 4 -23 4 -25 0 -35 -2 -22 -4z"/>
<path d="M920 3145 l0 -45 -45 0 -45 0 0 -145 0 -145 45 0 45 0 0 -45 0 -45
90 0 90 0 0 45 0 45 50 0 50 0 0 50 0 50 43 0 43 0 -1 38 c-2 36 -3 37 -43 40
l-42 3 0 100 0 99 -140 0 -140 0 0 -45z"/>
<path d="M1750 3145 l0 -45 -90 0 -90 0 0 -50 0 -50 -44 0 -45 0 -3 -47 -3
-48 -47 -3 -48 -3 0 -45 0 -44 -45 0 -45 0 0 -283 0 -283 43 0 42 1 3 -47 3
-48 44 0 44 0 3 -42 3 -43 48 -3 47 -3 0 -45 0 -44 90 0 c99 0 91 5 94 -65 1
-20 8 -20 366 -20 358 0 365 0 366 20 3 70 -5 65 94 65 l90 0 0 44 0 45 48 3
47 3 3 43 3 42 44 0 44 0 3 48 3 47 43 -1 42 0 0 283 0 283 -45 0 -45 0 0 44
0 45 -47 3 -48 3 -3 48 -3 47 -45 0 -44 0 0 50 0 50 -90 0 -90 0 0 45 0 45
-370 0 -370 0 0 -45z m650 -195 l0 -50 90 0 90 0 0 -45 0 -45 45 0 45 0 0 -50
0 -50 45 0 45 0 0 -185 0 -185 -45 0 -45 0 0 -45 0 -45 -45 0 -45 0 0 -45 0
-45 -90 0 -90 0 0 -50 0 -50 -280 0 -280 0 0 50 0 50 -90 0 -90 0 0 45 0 45
-45 0 -45 0 0 45 0 45 -45 0 -45 0 0 185 0 185 45 0 45 0 0 50 0 50 45 0 45 0
0 45 0 45 90 0 90 0 0 50 0 50 280 0 280 0 0 -50z"/>
<path d="M1937 2714 c-4 -4 -7 -47 -7 -96 l0 -88 50 0 50 0 0 -95 0 -95 90 0
90 0 0 95 0 95 50 0 51 0 -3 93 -3 92 -181 3 c-99 1 -183 -1 -187 -4z"/>
<path d="M3040 3091 l0 -100 -42 -3 c-40 -3 -41 -4 -43 -40 l-1 -38 43 0 43 0
0 -50 0 -50 50 0 50 0 0 -45 0 -45 90 0 90 0 0 45 0 45 45 0 45 0 0 145 0 145
-45 0 -45 0 0 45 0 45 -140 0 -140 0 0 -99z"/>
<path d="M18 1693 c12 -2 32 -2 45 0 12 2 2 4 -23 4 -25 0 -35 -2 -22 -4z"/>
<path d="M4178 1693 c12 -2 32 -2 45 0 12 2 2 4 -23 4 -25 0 -35 -2 -22 -4z"/>
</g>
</svg>
